<?xml version="1.0" encoding="UTF-8" standalone="no"?>
<svg
   height="16"
   viewBox="0 0 16 16"
   width="16"
   version="1.1"
   id="svg19"
   sodipodi:docname="ResourcePreloader.svg"
   inkscape:version="1.1 (c68e22c387, 2021-05-23)"
   xmlns:inkscape="http://www.inkscape.org/namespaces/inkscape"
   xmlns:sodipodi="http://sodipodi.sourceforge.net/DTD/sodipodi-0.dtd"
   xmlns="http://www.w3.org/2000/svg"
   xmlns:svg="http://www.w3.org/2000/svg">
  <defs
     id="defs23" />
  <sodipodi:namedview
     id="namedview21"
     pagecolor="#ffffff"
     bordercolor="#666666"
     borderopacity="1.0"
     inkscape:pageshadow="2"
     inkscape:pageopacity="0.0"
     inkscape:pagecheckerboard="0"
     showgrid="false"
     inkscape:zoom="50.5625"
     inkscape:cx="8"
     inkscape:cy="8"
     inkscape:window-width="1920"
     inkscape:window-height="1017"
     inkscape:window-x="-8"
     inkscape:window-y="-8"
     inkscape:window-maximized="1"
     inkscape:current-layer="svg19" />
  <path
     d="m7.9629 1.002a1.0001 1.0001 0 0 0 -.41016.10352l-6 3a1.0001 1.0001 0 0 0 -.55273.89453v6a1.0001 1.0001 0 0 0 .55273.89453l6 3a1.0001 1.0001 0 0 0 .89453 0l6-3a1.0001 1.0001 0 0 0 .55273-.89453v-6a1.0001 1.0001 0 0 0 -.55273-.89453l-6-3a1.0001 1.0001 0 0 0 -.48438-.10352zm.037109 2.1172 3.7637 1.8809-1.3809.69141-3.7637-1.8828 1.3809-.68945zm-5 3.5 4 2v3.7637l-4-2zm10 0v3.7637l-4 2v-3.7637z"
     fill="#e0e0e0"
     fill-rule="evenodd"
     id="path17" />
  <path
     style="fill:#a0a0a0;stroke:none;stroke-width:0.0197775"
     d="M 7.7725587,14.967614 C 7.6191964,14.934196 1.4683348,11.85095 1.3512331,11.748792 1.2270486,11.640454 1.1067222,11.455619 1.0582798,11.298781 1.0191807,11.172192 1.0185414,11.119126 1.0185414,8 c 0,-3.1191262 6.393e-4,-3.1721924 0.039738,-3.2987807 C 1.1067364,4.5443325 1.2270911,4.3594834 1.3512327,4.2512801 1.4193267,4.1919281 2.2558023,3.7643756 4.5191591,2.6320381 6.21063,1.7858101 7.6435101,1.076868 7.7033371,1.0566112 c 0.151067,-0.05115 0.4456636,-0.051457 0.593325,-6.196e-4 0.059827,0.020598 1.4927071,0.7298185 3.1841789,1.5760465 2.263356,1.1323375 3.099832,1.5598905 3.167926,1.619242 0.124141,0.1082033 0.244496,0.2930524 0.292953,0.4499392 0.0391,0.1265883 0.03974,0.1796545 0.03974,3.2987807 0,3.119126 -6.39e-4,3.172192 -0.03974,3.298781 -0.04846,0.156887 -0.168812,0.341736 -0.292953,0.449938 -0.06805,0.05932 -0.903319,0.486427 -3.158038,1.614856 -1.6860322,0.843816 -3.1144624,1.551603 -3.1742894,1.572861 -0.1300238,0.0462 -0.4031005,0.06185 -0.5438813,0.03118 z M 7.0111248,10.496864 V 8.6130118 L 5.0037083,7.6093619 2.9962917,6.6057119 v 1.893729 1.8937291 l 1.9826947,0.992669 c 1.0904821,0.545968 1.9938195,0.993166 2.0074166,0.993773 0.019612,8.77e-4 0.024722,-0.388261 0.024722,-1.882748 z m 4.0049182,0.890079 1.987665,-0.993773 V 8.4994407 6.6057119 l -2.007416,1.00365 -2.0074168,1.0036499 v 1.8838522 c 0,1.24106 0.00674,1.883853 0.019751,1.883853 0.010863,0 0.9142008,-0.447198 2.0074168,-0.993774 z m 0.05928,-6.0320507 c 0.375319,-0.1875657 0.682399,-0.3477542 0.682399,-0.3559743 0,-0.00822 -0.845504,-0.4377163 -1.8788976,-0.9544358 L 7.9999314,3.1049924 7.307753,3.4511915 C 6.927055,3.641601 6.6155748,3.8018063 6.6155748,3.8072036 c 0,0.010544 3.7379512,1.8858084 3.7625952,1.8876277 0.0081,5.993e-4 0.321837,-0.1523732 0.697157,-0.339939 z"
     id="path142" />
  <path
     style="fill:#ff6600;stroke:none;stroke-width:0.0197775"
     d="M 7.7527812,14.948878 C 7.5282941,14.865551 2.1352457,12.168872 1.512979,11.828799 1.33002,11.72881 1.2195383,11.611983 1.1226699,11.416071 l -0.074462,-0.150596 -0.01765,-1.6293284 c -0.010348,-0.9552693 -0.010348,-2.3062088 0,-3.2654764 l 0.01765,-1.6361478 0.077562,-0.1568672 C 1.2539671,4.3183798 1.3236047,4.2642041 1.9360681,3.9472714 2.5607571,3.6240121 7.2615919,1.2750781 7.5648949,1.1346341 L 7.7725587,1.0384758 8,1.0383973 c 0.2157366,-7.44e-5 0.2350748,0.00335 0.3757726,0.066501 0.230999,0.1036847 5.1502364,2.5606139 5.7156984,2.8547243 0.581921,0.302671 0.655613,0.360859 0.782759,0.6180717 l 0.07756,0.1569061 0.01537,1.6334568 c 0.0085,0.8984011 0.0085,2.3678311 0,3.2653996 L 14.95179,11.2654 14.87423,11.422306 c -0.127145,0.257211 -0.200838,0.3154 -0.782759,0.618076 -0.664426,0.34559 -5.6152032,2.817298 -5.7552534,2.873349 -0.1271413,0.05088 -0.4832471,0.07234 -0.5834364,0.03515 z M 7.0062803,10.485443 7.0113246,8.6033525 5.0137357,7.6045192 C 3.9150618,7.055161 3.0116794,6.605686 3.0062192,6.605686 c -0.00546,0 -0.00993,0.854423 -0.00993,1.8987175 v 1.8987175 l 1.9799393,0.989716 c 1.0889667,0.544345 1.9900792,0.986337 2.0024722,0.982207 0.016601,-0.0055 0.023861,-0.502977 0.027577,-1.889601 z m 4.0189407,0.90657 1.978487,-0.988704 V 8.5044974 c 0,-1.0443463 -0.0045,-1.8988114 -0.0099,-1.8988114 -0.0055,0 -0.908798,0.4494525 -2.007417,0.9987833 L 8.9888752,8.6032526 v 1.8887324 c 0,1.644314 0.00374,1.888732 0.028929,1.888732 0.015911,0 0.9192488,-0.444917 2.0074168,-0.988704 z m 0.06227,-6.0339898 C 11.474712,5.1634367 11.756925,5.0103529 11.752883,4.9970838 11.749022,4.9844108 10.903315,4.5512979 9.8735324,4.0346106 L 8.0012011,3.0951792 7.3144498,3.4412855 C 6.9367367,3.631644 6.6278113,3.7962917 6.6279488,3.8071693 c 3.065e-4,0.024167 3.7012052,1.8866142 3.7514032,1.887863 0.01964,4.885e-4 0.338305,-0.1511654 0.708134,-0.3370091 z"
     id="path181" />
</svg>
