<?xml version="1.0" encoding="UTF-8" standalone="no"?>
<svg
   height="16"
   viewBox="0 0 16 16"
   width="16"
   version="1.1"
   id="svg273"
   sodipodi:docname="PackedScene.svg"
   inkscape:version="1.1 (c68e22c387, 2021-05-23)"
   xmlns:inkscape="http://www.inkscape.org/namespaces/inkscape"
   xmlns:sodipodi="http://sodipodi.sourceforge.net/DTD/sodipodi-0.dtd"
   xmlns="http://www.w3.org/2000/svg"
   xmlns:svg="http://www.w3.org/2000/svg">
  <defs
     id="defs277" />
  <sodipodi:namedview
     id="namedview275"
     pagecolor="#ffffff"
     bordercolor="#666666"
     borderopacity="1.0"
     inkscape:pageshadow="2"
     inkscape:pageopacity="0.0"
     inkscape:pagecheckerboard="0"
     showgrid="false"
     inkscape:zoom="52"
     inkscape:cx="7.9903846"
     inkscape:cy="8.0096154"
     inkscape:window-width="1920"
     inkscape:window-height="1017"
     inkscape:window-x="-8"
     inkscape:window-y="-8"
     inkscape:window-maximized="1"
     inkscape:current-layer="svg273" />
  <path
     d="m14.564 2-2.2441.32812.81836 1.9004 1.7148-.25zm-4.2227.61523-1.9785.28906.81836 1.9023 1.9785-.28906zm-3.959.57812-1.9785.28906.81836 1.9023 1.9785-.28906zm-3.957.57812-1.7148.25.28906 1.9785 2.2441-.32812zm-1.4258 3.2285v6c0 1.1046.89543 2 2 2h12v-8z"
     fill="#e0e0e0"
     id="path271" />
  <path
     style="fill:#ff6600;stroke-width:0.0192308"
     d="M 2.8076923,14.979065 C 1.928384,14.899576 1.1922245,14.215197 1.038633,13.334438 1.0135757,13.190749 1.0096154,12.747133 1.0096154,10.084019 V 7 H 8 14.990385 v 4 4 L 8.9855769,14.9974 C 5.6829327,14.9959 2.9028846,14.9877 2.8076923,14.97911 Z"
     id="path316" />
  <path
     style="fill:#ff6600;stroke-width:0.0192308"
     d="M 1.0006092,5.9375 C 0.98416408,5.8644354 0.72031147,4.0327847 0.72570757,4.0291473 0.74006893,4.0194668 2.4145956,3.7833013 2.4207267,3.7900917 c 0.0177,0.019603 0.8051187,1.8653922 0.7983745,1.8714697 -0.00912,0.00822 -2.1289361,0.3192078 -2.1758486,0.3192078 -0.018417,0 -0.037192,-0.019051 -0.042643,-0.043269 z"
     id="path355" />
  <path
     style="fill:#ff6600;stroke-width:0.0192308"
     d="M 5.2033792,5.3221154 C 5.1941267,5.2983173 5.024519,4.9024038 4.8264731,4.4423077 4.6284272,3.9822115 4.4551489,3.5795213 4.4414103,3.5474404 L 4.416431,3.4891116 5.3872855,3.3476642 c 0.6122894,-0.089207 0.977593,-0.1347087 0.9891001,-0.1232018 0.020782,0.020782 0.8108507,1.8546788 0.8022794,1.8622391 -0.0083,0.00732 -1.8845282,0.2793335 -1.9243333,0.2789833 -0.018771,-1.731e-4 -0.0417,-0.019771 -0.050953,-0.043569 z"
     id="path394" />
  <path
     style="fill:#ff6600;stroke-width:0.0192308"
     d="M 9.1566662,4.7259615 C 9.142068,4.6915865 8.9679747,4.2870192 8.7697922,3.8269231 8.5716097,3.3668269 8.4025192,2.972487 8.3940356,2.9506122 c -0.015056,-0.03882 0.00779,-0.04316 0.9543301,-0.1813243 0.5946533,-0.0868 0.9764563,-0.1346426 0.9870803,-0.1236892 0.01963,0.020237 0.812519,1.8576551 0.804414,1.8641226 -0.0081,0.00648 -1.8876976,0.2787402 -1.9242981,0.2787402 -0.018236,0 -0.043935,-0.027272 -0.058896,-0.0625 z"
     id="path433" />
  <path
     style="fill:#ff6600;stroke-width:0.0192308"
     d="m 13.137298,4.1966483 c -0.02171,-0.035136 -0.80158,-1.855983 -0.796622,-1.859972 0.008,-0.00644 2.154006,-0.3179277 2.18859,-0.3176665 0.02393,1.806e-4 0.05509,0.1774858 0.170849,0.9720006 0.07787,0.5344789 0.138258,0.9746173 0.134195,0.9780854 -0.008,0.00685 -1.627362,0.2427873 -1.664906,0.2425732 -0.0126,-7.69e-5 -0.02704,-0.00683 -0.03211,-0.015021 z"
     id="path472" />
</svg>
