<?xml version="1.0" encoding="UTF-8" standalone="no"?>
<svg
   height="16"
   viewBox="0 0 16 16"
   width="16"
   version="1.1"
   id="svg530"
   sodipodi:docname="Node2D.svg"
   inkscape:version="1.1 (c68e22c387, 2021-05-23)"
   xmlns:inkscape="http://www.inkscape.org/namespaces/inkscape"
   xmlns:sodipodi="http://sodipodi.sourceforge.net/DTD/sodipodi-0.dtd"
   xmlns="http://www.w3.org/2000/svg"
   xmlns:svg="http://www.w3.org/2000/svg">
  <defs
     id="defs534" />
  <sodipodi:namedview
     id="namedview532"
     pagecolor="#ffffff"
     bordercolor="#666666"
     borderopacity="1.0"
     inkscape:pageshadow="2"
     inkscape:pageopacity="0.0"
     inkscape:pagecheckerboard="0"
     showgrid="false"
     inkscape:snap-global="true"
     inkscape:object-paths="true"
     inkscape:snap-intersection-paths="false"
     inkscape:zoom="26"
     inkscape:cx="9.4615385"
     inkscape:cy="8.7307692"
     inkscape:window-width="1271"
     inkscape:window-height="1040"
     inkscape:window-x="609"
     inkscape:window-y="1"
     inkscape:window-maximized="0"
     inkscape:current-layer="svg530" />
  <path
     id="rect1116"
     style="fill:#ff6600"
     d="m 3.23077,7.23077 c 0,-0.1380712 0.0078,-0.2737348 0.02148,-0.4082031 C 3.26591,6.6880986 3.28616,6.5543246 3.3128,6.4241294 3.33944,6.2939342 3.3715,6.1665687 3.41046,6.0413169 3.44942,5.916065 3.49462,5.7937677 3.545226,5.6741294 3.595826,5.554491 3.651617,5.4378746 3.713195,5.32452 3.774775,5.2111654 3.842484,5.1008426 3.914367,4.9944419 3.986247,4.8880412 4.063318,4.7846247 4.144835,4.6858481 4.226355,4.5870721 4.312166,4.4931272 4.402648,4.402645 4.493128,4.312163 4.587075,4.2263502 4.685851,4.1448325 4.784631,4.0633145 4.888044,3.9862466 4.994445,3.9143638 5.100846,3.8424808 5.211168,3.7747698 5.324523,3.7131919 5.437878,3.6516139 5.554494,3.5958259 5.674132,3.5452231 5.793771,3.4946201 5.916068,3.4494151 6.04132,3.4104575 6.166572,3.3715005 6.293937,3.3394435 6.424132,3.3128015 6.554328,3.2861595 6.688102,3.2659105 6.82257,3.2522545 6.957035,3.2385985 7.092699,3.2307705 7.23077,3.2307705 v -2 c -0.103553,0 -0.206329,0.00263 -0.308594,0.00781 -0.102265,0.00518 -0.203836,0.013196 -0.304687,0.023437 -0.100852,0.010242 -0.20147,0.021935 -0.300782,0.037109 -0.09931,0.015175 -0.197275,0.032753 -0.294921,0.052734 C 5.826493,1.3918225 5.633491,1.4418615 5.445614,1.5002979 5.257736,1.5587339 5.07429,1.6255657 4.894832,1.7014698 4.715375,1.7773738 4.541427,1.8630092 4.371395,1.9553761 4.201363,2.0477431 4.034902,2.148333 3.875301,2.2561573 3.7157,2.3639817 3.562529,2.4776308 3.414364,2.5999073 3.266199,2.7221838 3.124306,2.8528559 2.988583,2.9885792 2.852859,3.1243025 2.722187,3.2661956 2.599911,3.4143605 2.477634,3.5625252 2.363985,3.7156969 2.256161,3.8752979 2.148336,4.034899 2.047746,4.2013598 1.955379,4.3713917 1.863009,4.5414236 1.777377,4.7153717 1.701473,4.8948292 1.625573,5.0742867 1.558737,5.2577325 1.500301,5.4456105 1.441861,5.6334882 1.391826,5.8264896 1.351864,6.0217823 c -0.01998,0.097646 -0.03756,0.1956103 -0.05273,0.2949219 -0.01517,0.099312 -0.02687,0.19993 -0.03711,0.3007813 -0.01024,0.1008512 -0.01825,0.2024223 -0.02344,0.3046874 -0.00518,0.102269 -0.00781,0.2050442 -0.00781,0.3085976 z" />
  <path
     id="path1540"
     style="fill:#ff6600"
     d="m 12.76924,7.23077 c 0,-0.1380712 -0.0078,-0.2737348 -0.02148,-0.4082031 C 12.7341,6.6880986 12.71385,6.5543246 12.68721,6.4241294 12.66057,6.2939342 12.62851,6.1665687 12.58955,6.0413169 12.55059,5.916065 12.50539,5.7937677 12.454784,5.6741294 12.404184,5.554491 12.348393,5.4378746 12.286815,5.32452 12.225235,5.2111654 12.157526,5.1008426 12.085643,4.9944419 12.013763,4.8880412 11.936692,4.7846247 11.855175,4.6858481 11.773655,4.5870711 11.687844,4.4931272 11.597362,4.402645 11.506882,4.312163 11.412935,4.2263502 11.314159,4.1448325 11.215379,4.0633145 11.111966,3.9862466 11.005565,3.9143638 10.899164,3.8424808 10.788842,3.7747698 10.675486,3.7131919 10.562129,3.6516139 10.445512,3.5958259 10.325872,3.5452231 10.206232,3.4946201 10.083933,3.4494151 9.95868,3.4104575 9.833428,3.3715005 9.706063,3.3394435 9.575868,3.3128015 9.445672,3.2861595 9.311898,3.2659105 9.17743,3.2522545 9.042965,3.2385984 8.907301,3.23077 8.76923,3.23077 v -2 c 0.103553,0 0.206329,0.00263 0.308594,0.00781 0.102265,0.00518 0.203836,0.013195 0.304687,0.023437 0.100852,0.010242 0.20147,0.021935 0.300782,0.037109 0.09931,0.015175 0.197275,0.032753 0.294921,0.052734 0.195295,0.039963 0.3883,0.090001 0.576179,0.1484374 0.187881,0.058436 0.371327,0.1252678 0.550785,0.2011719 0.179457,0.075904 0.353405,0.1615394 0.523437,0.2539063 0.170032,0.092367 0.336493,0.1929569 0.496094,0.3007812 0.159601,0.1078244 0.312772,0.2214735 0.460937,0.34375 0.148165,0.1222765 0.290058,0.2529486 0.425782,0.3886719 0.135723,0.1357233 0.266395,0.2776164 0.388671,0.4257813 0.122277,0.1481647 0.235926,0.3013364 0.34375,0.4609374 0.107825,0.1596049 0.208415,0.3260657 0.300782,0.4960976 0.09237,0.1700319 0.178002,0.34398 0.253906,0.5234375 0.0759,0.1794575 0.142736,0.3629033 0.201172,0.5507813 0.05844,0.1878777 0.108475,0.3808791 0.148437,0.5761718 0.01998,0.097646 0.03756,0.1956103 0.05274,0.2949219 0.01517,0.099312 0.02687,0.19993 0.03711,0.3007813 0.01024,0.1008512 0.01825,0.2024223 0.02344,0.3046874 0.0052,0.1022652 0.0078,0.2050404 0.0078,0.3085938 z" />
  <path
     id="path1542"
     style="fill:#ff6600"
     d="m 3.23077,8.76923 c 0,0.138071 0.0078,0.273735 0.02148,0.408203 0.01366,0.134468 0.03391,0.268242 0.06055,0.398437 0.02664,0.1301959 0.0587,0.2575609 0.09766,0.3828129 0.03896,0.1252531 0.08416,0.2475511 0.134766,0.3671911 0.0506,0.11964 0.106391,0.236258 0.167969,0.349614 0.06158,0.113356 0.129289,0.223679 0.201172,0.33008 0.07188,0.106401 0.148951,0.209817 0.230468,0.308594 0.08152,0.09878 0.167331,0.192721 0.257813,0.283203 0.09048,0.09048 0.184427,0.176295 0.283203,0.257812 0.09878,0.08152 0.202193,0.158586 0.308594,0.230469 0.106401,0.07188 0.216723,0.139594 0.330078,0.201172 0.113355,0.06158 0.229971,0.117366 0.349609,0.167969 0.119639,0.0506 0.241936,0.09581 0.367188,0.134765 0.125252,0.03896 0.252617,0.07101 0.382812,0.09766 0.130196,0.02664 0.26397,0.04689 0.398438,0.06055 0.134465,0.01366 0.270129,0.02149 0.4082,0.02149 v 1.999988 c -0.103553,0 -0.206329,-0.0026 -0.308594,-0.0078 C 6.819911,14.75624 6.71834,14.74825 6.617489,14.738 6.516637,14.72776 6.416019,14.71607 6.316707,14.70089 6.217397,14.68572 6.119432,14.66814 6.021786,14.64816 5.826493,14.6082 5.633491,14.55816 5.445614,14.499723 5.257736,14.441283 5.07429,14.374455 4.894832,14.298551 4.715375,14.222651 4.541427,14.137011 4.371395,14.044644 4.201363,13.952274 4.034902,13.851687 3.875302,13.743863 3.7157,13.636039 3.562529,13.52239 3.414365,13.400113 3.2662,13.277837 3.124307,13.147164 2.988583,13.011441 2.85286,12.875718 2.7221875,12.733825 2.5999115,12.58566 c -0.122277,-0.148165 -0.235926,-0.301337 -0.34375,-0.460938 -0.107825,-0.159604 -0.208415,-0.326065 -0.300782,-0.496097 -0.09237,-0.170032 -0.178002,-0.34398 -0.253906,-0.523438 -0.0759,-0.179457 -0.142736,-0.362904 -0.201172,-0.550784 -0.05844,-0.187881 -0.108475,-0.380884 -0.148437,-0.5761791 -0.01998,-0.09765 -0.03756,-0.19561 -0.05274,-0.294922 -0.01517,-0.09931 -0.02687,-0.1999299 -0.03711,-0.3007809 -0.01024,-0.100851 -0.01825,-0.202422 -0.02344,-0.304687 -0.0052,-0.102266 -0.0078,-0.205041 -0.0078,-0.308594 z" />
  <path
     id="path1544"
     style="fill:#ff6600"
     d="m 12.769244,8.76922 c 0,0.138071 -0.0078,0.273735 -0.02148,0.408203 -0.01366,0.134468 -0.03391,0.268242 -0.06055,0.398437 -0.02664,0.1301959 -0.0587,0.2575609 -0.09766,0.3828129 -0.03896,0.1252531 -0.08416,0.2475511 -0.134766,0.3671911 -0.0506,0.11964 -0.106391,0.236258 -0.167968,0.349614 -0.06158,0.113356 -0.129289,0.223679 -0.201172,0.33008 -0.07188,0.106401 -0.148951,0.209817 -0.230469,0.308594 -0.08152,0.09878 -0.16733,0.192721 -0.257812,0.283203 -0.09048,0.09048 -0.184427,0.176295 -0.283204,0.257812 -0.09878,0.08152 -0.202193,0.158586 -0.308593,0.230469 -0.106402,0.07188 -0.216724,0.139594 -0.33008,0.201172 -0.113356,0.06158 -0.229974,0.117366 -0.349613,0.167969 -0.119641,0.0506 -0.241939,0.09581 -0.3671925,0.134765 -0.125252,0.03896 -0.252617,0.07101 -0.382812,0.09766 -0.130196,0.02664 -0.26397,0.04689 -0.398438,0.06055 -0.134465,0.01366 -0.270129,0.02149 -0.4082,0.02149 v 1.999988 c 0.103553,0 0.206329,-0.0026 0.308594,-0.0078 0.102265,-0.0052 0.203836,-0.01319 0.304687,-0.02344 0.100852,-0.01024 0.20147,-0.02193 0.300782,-0.03711 0.09931,-0.01517 0.197275,-0.03275 0.294921,-0.05273 0.1952955,-0.03996 0.3882995,-0.09 0.5761795,-0.148437 0.18788,-0.05844 0.371326,-0.125268 0.550784,-0.201172 0.179457,-0.0759 0.353406,-0.16154 0.523437,-0.253907 0.170032,-0.09237 0.336494,-0.192957 0.496093,-0.300781 0.159602,-0.107824 0.312773,-0.221473 0.460937,-0.34375 0.148165,-0.122276 0.290059,-0.252949 0.425783,-0.388672 0.135722,-0.135723 0.266395,-0.277616 0.388671,-0.425781 0.122277,-0.148165 0.235926,-0.301337 0.34375,-0.460938 0.107825,-0.159604 0.208415,-0.326065 0.300782,-0.496097 0.09237,-0.170032 0.178002,-0.34398 0.253906,-0.523438 0.0759,-0.179457 0.142736,-0.362904 0.201172,-0.550784 0.05844,-0.187881 0.108475,-0.380884 0.148437,-0.5761791 0.01998,-0.09765 0.03756,-0.19561 0.05274,-0.294922 0.01517,-0.09931 0.02687,-0.1999299 0.03711,-0.3007809 0.01024,-0.100851 0.01825,-0.202422 0.02344,-0.304687 0.0052,-0.102266 0.0078,-0.205041 0.0078,-0.308594 z" />
</svg>
